<svg xmlns="http://www.w3.org/2000/svg" viewBox="0 0 1440 560"><defs><radialGradient id="a" cx="50%" cy="50%" r="100%" fx="50%" fy="50%"><stop offset="0%" stop-color="#fff"/><stop offset="100%" stop-color="#0d1b2a"/></radialGradient></defs><rect width="1440" height="560" fill="url(#a)"/><g opacity=".7"><ellipse fill="#fff" rx="2.5" ry="1.5" transform="matrix(.98 -.2 .2 .98 200 200)"/><ellipse fill="#fff" rx="2.5" ry="1.5" transform="matrix(.98 -.2 .2 .98 400 300)"/><ellipse fill="#fff" rx="2.5" ry="1.5" transform="matrix(.98 -.2 .2 .98 800 100)"/><ellipse fill="#fff" rx="2.5" ry="1.5" transform="matrix(.98 -.2 .2 .98 1200 400)"/><ellipse fill="#fff" rx="2.5" ry="1.5" transform="matrix(.98 -.2 .2 .98 1000 500)"/><ellipse fill="#fff" rx="2.5" ry="1.5" transform="matrix(.98 -.2 .2 .98 600 400)"/></g><ellipse fill="#6c5ce7" opacity=".3" rx="400" ry="80" cx="720" cy="280"/><ellipse fill="#00cec9" opacity=".2" rx="300" ry="60" cx="720" cy="300"/><ellipse fill="#d63031" opacity=".15" rx="200" ry="40" cx="720" cy="320"/><ellipse fill="#fff" opacity=".05" rx="600" ry="120" cx="720" cy="280"/></svg>
